<?xml version="1.0" encoding="UTF-8" standalone="no"?>
<svg
   width="900px"
   height="900px"
   viewBox="0 0 900 900"
   version="1.1"
   xml:space="preserve"
   id="SVGRoot"
   inkscape:version="1.3.2 (091e20ef0f, 2023-11-25)"
   sodipodi:docname="ring.svg"
   xmlns:inkscape="http://www.inkscape.org/namespaces/inkscape"
   xmlns:sodipodi="http://sodipodi.sourceforge.net/DTD/sodipodi-0.dtd"
   xmlns="http://www.w3.org/2000/svg"
   xmlns:svg="http://www.w3.org/2000/svg"><defs
   id="defs2" />
<sodipodi:namedview
   pagecolor="#a9a9a9"
   bordercolor="#292929"
   borderopacity="1"
   inkscape:showpageshadow="2"
   inkscape:pageopacity="0.0"
   inkscape:pagecheckerboard="0"
   inkscape:deskcolor="#232323"
   id="namedview1"
   inkscape:zoom="0.89222222"
   inkscape:cx="449.4396"
   inkscape:cy="450"
   inkscape:window-width="1920"
   inkscape:window-height="1043"
   inkscape:window-x="2560"
   inkscape:window-y="0"
   inkscape:window-maximized="1"
   inkscape:current-layer="SVGRoot" />
<style
   type="text/css"
   id="style1">
g.prefab path {
  vector-effect:non-scaling-stroke;
  -inkscape-stroke:hairline;
  fill: none;
  fill-opacity: 1;
  stroke-opacity: 1;
  stroke: #00349c;
}
</style>

<path
   id="circle11"
   style="fill:#000000;stroke-width:0.515316"
   d="M 449.81836 227.73828 A 148.39296 148.39296 0 0 0 301.42578 376.13281 A 148.39296 148.39296 0 0 0 449.81836 524.52539 A 148.39296 148.39296 0 0 0 598.21094 376.13281 A 148.39296 148.39296 0 0 0 449.81836 227.73828 z M 449.81836 258.26562 A 117.86711 117.86711 0 0 1 567.68555 376.13281 A 117.86711 117.86711 0 0 1 449.81836 494 A 117.86711 117.86711 0 0 1 331.95117 376.13281 A 117.86711 117.86711 0 0 1 449.81836 258.26562 z " /></svg>
